<svg width="132" height="85" viewBox="0 0 132 85" fill="none" xmlns="http://www.w3.org/2000/svg">
<path fill-rule="evenodd" clip-rule="evenodd" d="M0 42.4329C0 41.1827 0.49665 39.9837 1.38069 39.0996C2.26474 38.2156 3.46376 37.7189 4.71398 37.7189L115.898 37.7189L86.2282 8.05856C85.343 7.1734 84.8458 5.97286 84.8458 4.72105C84.8458 3.46925 85.343 2.26871 86.2282 1.38355C87.1134 0.498398 88.3139 0.00112152 89.5657 0.00112152C90.8175 0.00112152 92.0181 0.498398 92.9032 1.38355L130.615 39.0954C131.054 39.5333 131.402 40.0535 131.64 40.6262C131.878 41.1989 132 41.8129 132 42.4329C132 43.053 131.878 43.6669 131.64 44.2396C131.402 44.8123 131.054 45.3325 130.615 45.7704L92.9032 83.4823C92.0181 84.3675 90.8175 84.8647 89.5657 84.8647C88.3139 84.8647 87.1134 84.3675 86.2282 83.4823C85.343 82.5971 84.8458 81.3966 84.8458 80.1448C84.8458 78.893 85.343 77.6925 86.2282 76.8073L115.898 47.1469L4.71398 47.1469C3.46376 47.1469 2.26474 46.6503 1.38069 45.7662C0.49665 44.8822 0 43.6832 0 42.4329Z" fill="#CFD1DF"/>
</svg>
