<svg width="143" height="143" viewBox="0 0 143 143" fill="none" xmlns="http://www.w3.org/2000/svg">
<path d="M101.292 128.144C94.6978 128.144 89.375 121.471 89.375 113.208C89.375 105.026 94.6978 98.3522 101.292 98.3522C107.886 98.3522 113.208 105.026 113.208 113.208C113.208 121.471 107.886 128.144 101.292 128.144ZM71.5001 65.5417C61.6489 65.5417 53.6251 58.8683 53.6251 50.6856C53.6251 42.4233 61.6489 35.75 71.5001 35.75C81.3512 35.75 89.375 42.4233 89.375 50.6856C89.375 58.8683 81.3512 65.5417 71.5001 65.5417ZM41.7084 128.144C35.1145 128.144 29.7917 121.471 29.7917 113.208C29.7917 105.026 35.1145 98.3522 41.7084 98.3522C48.3023 98.3522 53.6251 105.026 53.6251 113.208C53.6251 121.471 48.3023 128.144 41.7084 128.144ZM71.5001 41.7083C74.7573 41.7083 77.4584 44.4094 77.4584 47.6667C77.4584 50.9239 74.7573 53.625 71.5001 53.625C68.2428 53.625 65.5417 50.9239 65.5417 47.6667C65.5417 44.4094 68.2428 41.7083 71.5001 41.7083ZM125.125 71.5C122.583 71.5 120.12 72.0561 117.896 73.0889C114.082 68.2428 108.918 64.1117 102.722 60.9339C107.25 54.5783 109.951 46.8722 109.951 38.5306V38.0539C118.611 36.2267 125.125 28.5206 125.125 19.2256C125.125 8.65944 116.466 0 105.899 0C100.418 0 95.3334 2.30389 91.9967 5.95833C85.8685 2.06703 78.7593 0.000587172 71.5001 0.000587172C64.2408 0.000587172 57.1316 2.06703 51.0034 5.95833C47.6667 2.30389 42.5823 0 37.1006 0C26.5345 0 17.8751 8.65944 17.8751 19.2256C17.8751 28.4411 24.3895 36.1472 32.9695 38.0539V38.5306C32.9695 46.8722 35.7501 54.6578 40.199 60.9339C34.0817 64.1117 28.9179 68.2428 25.1045 73.0889C22.3896 71.8659 19.4113 71.3437 16.4422 71.5702C13.4732 71.7966 10.6085 72.7644 8.11047 74.385C5.61244 76.0055 3.56099 78.227 2.14404 80.8459C0.727082 83.4648 -0.010071 86.3974 0.00010392 89.375C0.00010392 99.3056 7.94454 107.25 17.8751 107.25H18.3518C18.034 109.157 17.8751 111.222 17.8751 113.208C17.8751 129.653 28.5206 143 41.7084 143C49.7323 143 56.8028 137.995 61.1723 130.368C64.5089 130.845 67.9251 131.083 71.5001 131.083C75.0751 131.083 78.4912 130.845 81.8278 130.368C86.1973 137.995 93.2678 143 101.292 143C114.479 143 125.125 129.653 125.125 113.208C125.125 111.222 124.966 109.157 124.648 107.25H125.125C135.056 107.25 143 99.3056 143 89.375C143 79.4444 135.056 71.5 125.125 71.5Z" fill="#BF86AE"/>
</svg>
